<svg width="26" height="30" viewBox="0 0 26 30" fill="none" xmlns="http://www.w3.org/2000/svg">
<g id="fluent:delete-32-regular">
<path id="Vector" d="M10.5 5.50061V6.00061H15.5V5.50061C15.5 4.83757 15.2366 4.20168 14.7678 3.73284C14.2989 3.264 13.663 3.00061 13 3.00061C12.337 3.00061 11.7011 3.264 11.2322 3.73284C10.7634 4.20168 10.5 4.83757 10.5 5.50061ZM8.5 6.00061V5.50061C8.5 4.30714 8.97411 3.16254 9.81802 2.31863C10.6619 1.47472 11.8065 1.00061 13 1.00061C14.1935 1.00061 15.3381 1.47472 16.182 2.31863C17.0259 3.16254 17.5 4.30714 17.5 5.50061V6.00061H25C25.2652 6.00061 25.5196 6.10597 25.7071 6.2935C25.8946 6.48104 26 6.73539 26 7.00061C26 7.26583 25.8946 7.52018 25.7071 7.70772C25.5196 7.89525 25.2652 8.00061 25 8.00061H23.492L21.6 24.5686C21.4605 25.7888 20.8768 26.915 19.9601 27.7323C19.0435 28.5497 17.8581 29.0012 16.63 29.0006H9.37C8.14186 29.0012 6.95647 28.5497 6.03985 27.7323C5.12323 26.915 4.53952 25.7888 4.4 24.5686L2.508 8.00061H1C0.734784 8.00061 0.48043 7.89525 0.292893 7.70772C0.105357 7.52018 0 7.26583 0 7.00061C0 6.73539 0.105357 6.48104 0.292893 6.2935C0.48043 6.10597 0.734784 6.00061 1 6.00061H8.5ZM6.388 24.3406C6.47149 25.0725 6.82135 25.7481 7.37092 26.2387C7.92049 26.7292 8.63134 27.0004 9.368 27.0006H16.631C17.3677 27.0004 18.0785 26.7292 18.6281 26.2387C19.1776 25.7481 19.5275 25.0725 19.611 24.3406L21.48 8.00061H4.521L6.388 24.3406ZM10 11.5006C10.2652 11.5006 10.5196 11.606 10.7071 11.7935C10.8946 11.981 11 12.2354 11 12.5006V22.5006C11 22.7658 10.8946 23.0202 10.7071 23.2077C10.5196 23.3953 10.2652 23.5006 10 23.5006C9.73478 23.5006 9.48043 23.3953 9.29289 23.2077C9.10536 23.0202 9 22.7658 9 22.5006V12.5006C9 12.2354 9.10536 11.981 9.29289 11.7935C9.48043 11.606 9.73478 11.5006 10 11.5006ZM17 12.5006C17 12.2354 16.8946 11.981 16.7071 11.7935C16.5196 11.606 16.2652 11.5006 16 11.5006C15.7348 11.5006 15.4804 11.606 15.2929 11.7935C15.1054 11.981 15 12.2354 15 12.5006V22.5006C15 22.7658 15.1054 23.0202 15.2929 23.2077C15.4804 23.3953 15.7348 23.5006 16 23.5006C16.2652 23.5006 16.5196 23.3953 16.7071 23.2077C16.8946 23.0202 17 22.7658 17 22.5006V12.5006Z" fill="#5E5E75"/>
</g>
</svg>
