<svg width="32" height="32" viewBox="0 0 32 32" fill="none" xmlns="http://www.w3.org/2000/svg">
<g id="Icon - Like">
<path id="Vector" d="M5.56488 21.6249L5.56484 21.6247C5.46748 21.1157 5.55019 20.5881 5.79913 20.1341C6.04813 19.68 6.44804 19.3277 6.92987 19.1408L6.93038 19.1406L7.57093 18.893L5.56488 21.6249ZM5.56488 21.6249L6.11254 24.481L6.11255 24.481C6.21649 25.023 6.4717 25.5242 6.84884 25.9251C7.22604 26.3261 7.70948 26.61 8.24236 26.7424L8.24243 26.7424L18.5574 29.3028C19.8122 29.6143 21.1375 29.4114 22.2445 28.7391C23.3512 28.0669 24.1494 26.9807 24.4676 25.718L24.4676 25.7179L26.3811 18.1189L26.3811 18.1188C26.4885 17.6921 26.4981 17.2462 26.4093 16.8152C26.3205 16.3841 26.1355 15.9789 25.868 15.6304C25.6005 15.282 25.2575 14.9995 24.8649 14.805C24.4722 14.6105 24.0405 14.5092 23.6028 14.5093C23.6028 14.5093 23.6028 14.5093 23.6027 14.5093L19.7495 14.5093C19.7493 14.5093 19.7491 14.5093 19.7489 14.5093C19.6688 14.5091 19.5897 14.4897 19.5178 14.4524C19.4458 14.415 19.3829 14.3605 19.3347 14.2929C19.2866 14.2253 19.2546 14.1466 19.242 14.0632C19.2293 13.9799 19.2364 13.8947 19.2626 13.8148C20.1532 11.1013 20.618 9.04826 20.618 7.7512C20.618 6.52471 20.3937 5.50527 19.9726 4.77353C19.5452 4.0308 18.8902 3.55576 18.0802 3.55576C17.9479 3.55576 17.854 3.60746 17.8172 3.63005C17.7733 3.65692 17.7426 3.68498 17.7261 3.70116C17.6925 3.734 17.6699 3.76517 17.6587 3.78119C17.6341 3.81641 17.6148 3.85206 17.6007 3.88004C17.5709 3.93922 17.5382 4.01666 17.5018 4.11531C17.4284 4.31448 17.3281 4.6333 17.1973 5.13624L17.1964 5.13997C17.129 5.40753 17.0584 5.67423 16.9845 5.94002L16.9845 5.94024C16.8471 6.43517 16.6096 7.27558 16.2691 8.4591L16.2686 8.46078C16.2191 8.63501 16.1452 8.80138 16.0502 8.95097L16.0495 8.95209L12.1726 15.0943L12.1726 15.0943M5.56488 21.6249L12.1726 15.0943M17.6813 5.26201C17.6129 5.53355 17.5412 5.80421 17.4663 6.07394C17.3283 6.57096 17.0903 7.41301 16.7496 8.59735C16.6874 8.81642 16.5941 9.02728 16.4724 9.21897L17.6813 5.26201ZM17.6813 5.26201C17.9382 4.27346 18.064 4.05576 18.0802 4.05576C19.2539 4.05576 20.118 5.40304 20.118 7.7512C20.118 8.96156 19.6772 10.9482 18.7874 13.6592L17.6813 5.26201ZM12.1726 15.0943C11.079 16.8273 9.46588 18.1583 7.57135 18.8928L12.1726 15.0943ZM15.998 5.65226L15.9981 5.65157C16.0523 5.45608 16.1034 5.26024 16.2047 4.86374C16.4541 3.9044 16.6773 3.31662 16.9585 2.96347C17.2004 2.65972 17.5089 2.50061 18.0815 2.50061C19.162 2.50061 20.0315 3.00646 20.6494 3.90532C21.2773 4.81883 21.6478 6.14875 21.6478 7.7512C21.6478 8.92104 21.3284 10.5883 20.6614 12.8118L20.4683 13.4555H21.1403H23.6041H23.6043C24.1967 13.4553 24.7816 13.5923 25.3144 13.8561C25.8471 14.12 26.3139 14.5039 26.6786 14.9791C27.0433 15.4543 27.2963 16.008 27.4178 16.5981C27.5393 17.1882 27.526 17.7986 27.3789 18.3827L27.8637 18.5048L27.3789 18.3827L25.4654 25.9817C25.0789 27.5166 24.1099 28.8332 22.7715 29.6464C21.4332 30.4594 19.833 30.7042 18.3182 30.3285L8.00329 27.7681L8.00325 27.7681C7.28133 27.589 6.62439 27.2039 6.11058 26.6577C5.59675 26.1113 5.24767 25.4267 5.10553 24.6845C5.10552 24.6844 5.10552 24.6844 5.10551 24.6844L4.55922 21.8284L4.55918 21.8282C4.41439 21.0728 4.5373 20.2901 4.90564 19.6181C5.27389 18.9463 5.86336 18.4288 6.56923 18.155C6.56928 18.155 6.56933 18.1549 6.56938 18.1549L7.20885 17.9072L7.2089 17.9071C8.90012 17.2517 10.3379 16.0646 11.3117 14.5217L11.3118 14.5216L15.1852 8.38066C15.228 8.31352 15.2611 8.2407 15.2835 8.16442L15.2843 8.16164C15.6224 6.9839 15.8608 6.1444 15.998 5.65226Z" fill="#5E5E75" stroke="#5E5E75"/>
</g>
</svg>
