<svg width="32" height="32" viewBox="0 0 32 32" fill="none" xmlns="http://www.w3.org/2000/svg">
<g id="Icon - Like">
<path id="Vector" d="M26.4351 10.3764L26.4352 10.3766C26.5325 10.8855 26.4498 11.4131 26.2009 11.8671C25.9519 12.3213 25.552 12.6735 25.0701 12.8604L25.0696 12.8606L24.4291 13.1082L26.4351 10.3764ZM26.4351 10.3764L25.8875 7.52024L25.8875 7.52021C25.7835 6.97827 25.5283 6.47704 25.1512 6.0761C24.774 5.6751 24.2905 5.39118 23.7576 5.25883L23.7576 5.25881L13.4426 2.69843C12.1878 2.38694 10.8625 2.58986 9.75553 3.26214C8.64877 3.93428 7.85058 5.02053 7.53238 6.28322L7.53236 6.28332L5.61892 13.8823L5.6189 13.8824C5.51153 14.3092 5.50189 14.755 5.5907 15.186C5.6795 15.6171 5.86449 16.0224 6.13196 16.3708C6.39945 16.7192 6.74246 17.0017 7.13512 17.1962C7.52779 17.3908 7.95949 17.492 8.39721 17.492C8.39723 17.492 8.39724 17.492 8.39726 17.492L12.2505 17.492C12.2507 17.492 12.2509 17.492 12.2511 17.492C12.3312 17.4921 12.4103 17.5115 12.4822 17.5488C12.5542 17.5862 12.6171 17.6407 12.6653 17.7083C12.7134 17.7759 12.7454 17.8546 12.758 17.938C12.7707 18.0214 12.7636 18.1065 12.7374 18.1864C11.8468 20.9 11.382 22.953 11.382 24.25C11.382 25.4765 11.6063 26.496 12.0274 27.2277C12.4548 27.9704 13.1098 28.4455 13.9198 28.4455C14.0521 28.4455 14.146 28.3938 14.1828 28.3712C14.2267 28.3443 14.2574 28.3162 14.2739 28.3001C14.3075 28.2672 14.3301 28.236 14.3413 28.22C14.3659 28.1848 14.3852 28.1492 14.3993 28.1212C14.4291 28.062 14.4618 27.9846 14.4982 27.8859C14.5716 27.6867 14.6719 27.3679 14.8027 26.865L14.8036 26.8612C14.871 26.5937 14.9416 26.327 15.0155 26.0612L15.0155 26.061C15.1529 25.5661 15.3904 24.7256 15.7309 23.5421L15.7314 23.5404C15.7809 23.3662 15.8548 23.1998 15.9498 23.0503L15.9505 23.0491L19.8274 16.907L19.8274 16.9069M26.4351 10.3764L19.8274 16.9069M14.3187 26.7392C14.3871 26.4677 14.4588 26.197 14.5337 25.9273C14.6717 25.4303 14.9097 24.5882 15.2504 23.4039C15.3126 23.1848 15.4059 22.9739 15.5276 22.7823L14.3187 26.7392ZM14.3187 26.7392C14.0618 27.7278 13.936 27.9455 13.9198 27.9455C12.7461 27.9455 11.882 26.5982 11.882 24.25C11.882 23.0397 12.3228 21.053 13.2126 18.342L14.3187 26.7392ZM19.8274 16.9069C20.921 15.1739 22.5341 13.843 24.4286 13.1084L19.8274 16.9069ZM16.002 26.349L16.0019 26.3496C15.9477 26.5451 15.8966 26.741 15.7953 27.1375C15.5459 28.0968 15.3227 28.6846 15.0415 29.0377C14.7996 29.3415 14.4911 29.5006 13.9185 29.5006C12.838 29.5006 11.9685 28.9948 11.3506 28.0959C10.7227 27.1824 10.3522 25.8525 10.3522 24.25C10.3522 23.0802 10.6716 21.4129 11.3386 19.1894L11.5317 18.5457H10.8597H8.39586H8.39574C7.80326 18.5459 7.21836 18.4089 6.68562 18.1451C6.15287 17.8812 5.68614 17.4973 5.32142 17.0221C4.95668 16.547 4.7037 15.9932 4.58221 15.4031C4.46072 14.813 4.47404 14.2026 4.62112 13.6185L4.13626 13.4964L4.62112 13.6185L6.53456 6.01953C6.92109 4.48457 7.89006 3.16804 9.22854 2.35485C10.5668 1.5418 12.167 1.29699 13.6818 1.67272L23.9967 4.23309L23.9968 4.2331C24.7187 4.41223 25.3756 4.79728 25.8894 5.34356C26.4033 5.88988 26.7523 6.57454 26.8945 7.31675C26.8945 7.31678 26.8945 7.31681 26.8945 7.31684L27.4408 10.1729L27.4408 10.1731C27.5856 10.9284 27.4627 11.7111 27.0944 12.3831C26.7261 13.0549 26.1366 13.5724 25.4308 13.8462C25.4307 13.8463 25.4307 13.8463 25.4306 13.8463L24.7912 14.0941L24.7911 14.0941C23.0999 14.7496 21.6621 15.9366 20.6883 17.4795L20.6882 17.4796L16.8148 23.6206C16.772 23.6877 16.7389 23.7605 16.7165 23.8368L16.7157 23.8396C16.3776 25.0173 16.1392 25.8568 16.002 26.349Z" fill="#5E5E75" stroke="#5E5E75"/>
</g>
</svg>
